<svg viewBox="0 0 32 32" fill="none" xmlns="http://www.w3.org/2000/svg"><path d="M0 16c0 8.837 7.163 16 16 16s16-7.163 16-16S24.837 0 16 0 0 7.163 0 16z" fill="#03753c"></path><path d="M21.71 10.29H10.29A5.71 5.71 0 1014.38 20h3.24a5.71 5.71 0 104.09-9.69v-.02zm-9.27 6.63h-1.18v1.19a1 1 0 01-1.93 0v-1.19H8.14a1 1 0 010-1.93h1.19v-1.18a1 1 0 111.93 0V15h1.18a1 1 0 010 1.93v-.01zm7.28 0a1 1 0 110-2 1 1 0 010 2zm2.15 2.15a1 1 0 110-2 1 1 0 010 2zm0-4.3a1 1 0 11.524-1.93 1 1 0 01-.524 1.93zM24 16.92a1 1 0 110-2 1 1 0 010 2z" fill="#FBFCFF"></path></svg>