<svg viewBox="0 0 32 32" fill="none" xmlns="http://www.w3.org/2000/svg"><path d="M0 16c0 8.837 7.163 16 16 16s16-7.163 16-16S24.837 0 16 0 0 7.163 0 16z" fill="#EF5425"></path><path d="M16.85 17.56a.89.89 0 01-.91-1 1 1 0 01.25-.69.94.94 0 011.32 0 1 1 0 01.25.7 1 1 0 01-.26.68.86.86 0 01-.65.31zm-3.56-5.07a.75.75 0 00-.85.76.769.769 0 00.88.77.748.748 0 00.85-.77c0-.47-.33-.76-.88-.76zm-.07 2c-.49 0-.73.26-.73.79v2.7a.8.8 0 00.21.62.75.75 0 00.53.17h.17c.47 0 .71-.26.71-.79v-2.7c0-.55-.22-.79-.72-.79h-.17zm-4.76 2.42a.87.87 0 00-.54.85c0 .69.66 1.09 1.81 1.09a2.17 2.17 0 001.62-.56 2.41 2.41 0 00.56-1.74V14c0-.52-.25-.79-.74-.79h-.24c-.47 0-.72.28-.72.79v2.53c0 .63-.21.88-.74.88a1.26 1.26 0 01-1-.5h-.01zm8.41-2.46a2.13 2.13 0 00-2.31 2.19 2.29 2.29 0 104.58 0 2.11 2.11 0 00-2.27-2.23v.04zM18 21.54H9.38a3.25 3.25 0 01-2.31-1 3.21 3.21 0 01-1-2.31v-4.5a3.21 3.21 0 011-2.31 3.25 3.25 0 012.31-1h8.67a3.26 3.26 0 013.26 3.27.24.24 0 00.25.24.3.3 0 00.15-.05l2.61-2.08a1 1 0 01.65-.27.91.91 0 01.838.568.87.87 0 01.062.352v7a.91.91 0 01-1.55.64l-2.62-2.08a.3.3 0 00-.15 0 .241.241 0 00-.25.24 3.261 3.261 0 01-3.3 3.29z" fill="#fff"></path></svg>