<svg viewBox="0 0 32 32" fill="none" xmlns="http://www.w3.org/2000/svg"><path d="M0 16c0 8.837 7.163 16 16 16s16-7.163 16-16S24.837 0 16 0 0 7.163 0 16z" fill="#E30513"></path><path d="M18.84 17.1a.83.83 0 100 1.66.792.792 0 00.79-.83.781.781 0 00-.79-.83z" fill="#fff"></path><path d="M22.68 11h-2.94a3.63 3.63 0 10-7.26 0H9.29a1 1 0 00-1 1l.94 10.8a1 1 0 001 1h11.51a1 1 0 001-1l.94-10.8a1 1 0 00-1-1zm-6.57-2.09a2.06 2.06 0 012 2.09h-4a2.06 2.06 0 012-2.07v-.02zm-1.54 8.92c0 1.36-.65 2-1.89 2-1 0-1.56-.36-1.56-.94a.73.73 0 01.48-.73 1.099 1.099 0 00.87.43c.44 0 .63-.2.63-.76v-2.19c0-.45.22-.67.62-.67h.21c.42 0 .64.22.64.67v2.19zm1.9 1.23c0 .51-.25.68-.61.68h-.15c-.38 0-.64-.16-.64-.68v-2.31c0-.51.27-.68.63-.68h.15c.38 0 .62.15.62.68v2.31zm-.68-3.38A.669.669 0 0115 15a.651.651 0 01.74-.66c.46 0 .76.25.76.66a.658.658 0 01-.71.7v-.02zm3 4.13a1.811 1.811 0 01-2-1.91 1.83 1.83 0 012-1.89 1.902 1.902 0 011.344 3.244 1.898 1.898 0 01-1.344.556z" fill="#fff"></path></svg>