<svg viewBox="0 0 32 32" fill="none" xmlns="http://www.w3.org/2000/svg"><path d="M0 16c0 8.837 7.163 16 16 16s16-7.163 16-16S24.837 0 16 0 0 7.163 0 16z" fill="#CC383E"></path><path d="M14.8 8.89H7.53c-.68 0-1.23.55-1.23 1.23v.01c0 .68.55 1.23 1.23 1.23h7.27c.68 0 1.23-.55 1.23-1.23v-.01c0-.68-.55-1.23-1.23-1.23zM14.8 12.8H7.53c-.68 0-1.23.551-1.23 1.23v.01c0 .68.55 1.23 1.23 1.23h7.27c.68 0 1.23-.55 1.23-1.23v-.01c0-.679-.55-1.23-1.23-1.23zM14.8 16.71H7.53c-.68 0-1.23.55-1.23 1.23v.01c0 .68.55 1.23 1.23 1.23h7.27c.68 0 1.23-.55 1.23-1.23v-.01c0-.68-.55-1.23-1.23-1.23zM14.8 20.61H7.53c-.68 0-1.23.551-1.23 1.23v.01c0 .68.55 1.23 1.23 1.23h7.27c.68 0 1.23-.55 1.23-1.23v-.01c0-.679-.55-1.23-1.23-1.23zM24.22 14.63l-4.35-2.51a1.571 1.571 0 00-2.36 1.35v5a1.57 1.57 0 002.36 1.36l4.35-2.52a1.56 1.56 0 000-2.68z" fill="#fff"></path></svg>
